<mxfile host="app.diagrams.net" agent="Mozilla/5.0 (Windows NT 10.0; Win64; x64) AppleWebKit/537.36 (KHTML, like Gecko) Chrome/137.0.0.0 Safari/537.36" version="27.1.6">
  <diagram name="페이지-1" id="RPWSu8jDUfwVwOgl_FfP">
    <mxGraphModel grid="0" page="1" gridSize="10" guides="1" tooltips="1" connect="1" arrows="1" fold="1" pageScale="1" pageWidth="827" pageHeight="1169" math="0" shadow="0">
      <root>
        <mxCell id="0" />
        <mxCell id="1" parent="0" />
        <mxCell id="Xon4dPEt-r_UMkQlmW_U-108" value="" style="rounded=1;whiteSpace=wrap;html=1;fillColor=#d5e8d4;strokeColor=#82b366;" vertex="1" parent="1">
          <mxGeometry x="-936" y="-1140" width="174" height="166.5" as="geometry" />
        </mxCell>
        <mxCell id="Xon4dPEt-r_UMkQlmW_U-103" value="" style="rounded=1;whiteSpace=wrap;html=1;fillColor=#f8cecc;strokeColor=#b85450;" vertex="1" parent="1">
          <mxGeometry x="-1557" y="-423" width="1373" height="325" as="geometry" />
        </mxCell>
        <mxCell id="Xon4dPEt-r_UMkQlmW_U-62" value="" style="rounded=1;whiteSpace=wrap;html=1;fillColor=#fff2cc;strokeColor=#d6b656;" vertex="1" parent="1">
          <mxGeometry x="-1048" y="-936" width="913" height="473" as="geometry" />
        </mxCell>
        <mxCell id="Xon4dPEt-r_UMkQlmW_U-51" value="" style="rounded=1;whiteSpace=wrap;html=1;fillColor=#dae8fc;strokeColor=#6c8ebf;" vertex="1" parent="1">
          <mxGeometry x="-1568" y="-892" width="490" height="445" as="geometry" />
        </mxCell>
        <mxCell id="O5eXx5Uky2tUyCatkSHt-1" value="&lt;div&gt;&#39;click&#39; event&lt;/div&gt;" style="rounded=0;whiteSpace=wrap;html=1;strokeWidth=1;" vertex="1" parent="1">
          <mxGeometry x="-906.5" y="-1055" width="120" height="60" as="geometry" />
        </mxCell>
        <mxCell id="O5eXx5Uky2tUyCatkSHt-2" value="aiGet =&amp;gt; aiCall" style="swimlane;fontStyle=0;childLayout=stackLayout;horizontal=1;startSize=30;horizontalStack=0;resizeParent=1;resizeParentMax=0;resizeLast=0;collapsible=1;marginBottom=0;whiteSpace=wrap;html=1;strokeWidth=1;" vertex="1" parent="1">
          <mxGeometry x="-998" y="-812" width="303" height="278" as="geometry" />
        </mxCell>
        <mxCell id="O5eXx5Uky2tUyCatkSHt-4" value="inputQuestion =textInput.value;" style="text;strokeColor=none;fillColor=none;align=left;verticalAlign=middle;spacingLeft=4;spacingRight=4;overflow=hidden;points=[[0,0.5],[1,0.5]];portConstraint=eastwest;rotatable=0;whiteSpace=wrap;html=1;strokeWidth=1;" vertex="1" parent="O5eXx5Uky2tUyCatkSHt-2">
          <mxGeometry y="30" width="303" height="30" as="geometry" />
        </mxCell>
        <mxCell id="Xon4dPEt-r_UMkQlmW_U-38" value="talkRendering(&#39;user&#39;,inputQuestion)" style="text;strokeColor=none;fillColor=none;align=left;verticalAlign=middle;spacingLeft=4;spacingRight=4;overflow=hidden;points=[[0,0.5],[1,0.5]];portConstraint=eastwest;rotatable=0;whiteSpace=wrap;html=1;strokeWidth=1;" vertex="1" parent="O5eXx5Uky2tUyCatkSHt-2">
          <mxGeometry y="60" width="303" height="30" as="geometry" />
        </mxCell>
        <mxCell id="O5eXx5Uky2tUyCatkSHt-3" value="const res&lt;div&gt;&amp;nbsp;= await aiQuestion(inputQuestion)&lt;/div&gt;" style="text;strokeColor=none;fillColor=none;align=left;verticalAlign=middle;spacingLeft=4;spacingRight=4;overflow=hidden;points=[[0,0.5],[1,0.5]];portConstraint=eastwest;rotatable=0;whiteSpace=wrap;html=1;strokeWidth=1;" vertex="1" parent="O5eXx5Uky2tUyCatkSHt-2">
          <mxGeometry y="90" width="303" height="30" as="geometry" />
        </mxCell>
        <mxCell id="Xon4dPEt-r_UMkQlmW_U-37" value="const problemJsonString&amp;nbsp;&lt;div&gt;= res.candidates[0].content.parts[0].text&lt;/div&gt;" style="text;strokeColor=none;fillColor=none;align=left;verticalAlign=middle;spacingLeft=4;spacingRight=4;overflow=hidden;points=[[0,0.5],[1,0.5]];portConstraint=eastwest;rotatable=0;whiteSpace=wrap;html=1;strokeWidth=1;" vertex="1" parent="O5eXx5Uky2tUyCatkSHt-2">
          <mxGeometry y="120" width="303" height="48" as="geometry" />
        </mxCell>
        <mxCell id="O5eXx5Uky2tUyCatkSHt-5" value="talkRendering(&lt;div&gt;&lt;span style=&quot;white-space: pre;&quot;&gt;&#x9;&lt;/span&gt;&#39;ai&#39;,&lt;/div&gt;&lt;div&gt;&lt;span style=&quot;white-space: pre;&quot;&gt;&#x9;&lt;/span&gt;stringSplit(&lt;/div&gt;&lt;div&gt;&lt;span style=&quot;white-space: pre;&quot;&gt;&#x9;&lt;/span&gt;&lt;span style=&quot;white-space: pre;&quot;&gt;&#x9;&lt;/span&gt;problemJsonString)&lt;/div&gt;&lt;div&gt;&lt;span style=&quot;white-space: pre;&quot;&gt;&#x9;&lt;/span&gt;)&lt;br&gt;&lt;/div&gt;" style="text;strokeColor=none;fillColor=none;align=left;verticalAlign=middle;spacingLeft=4;spacingRight=4;overflow=hidden;points=[[0,0.5],[1,0.5]];portConstraint=eastwest;rotatable=0;whiteSpace=wrap;html=1;strokeWidth=1;" vertex="1" parent="O5eXx5Uky2tUyCatkSHt-2">
          <mxGeometry y="168" width="303" height="110" as="geometry" />
        </mxCell>
        <mxCell id="O5eXx5Uky2tUyCatkSHt-6" value="" style="endArrow=classic;html=1;rounded=0;exitX=0.5;exitY=1;exitDx=0;exitDy=0;entryX=0.5;entryY=0;entryDx=0;entryDy=0;strokeWidth=1;" edge="1" parent="1" source="O5eXx5Uky2tUyCatkSHt-1" target="O5eXx5Uky2tUyCatkSHt-2">
          <mxGeometry width="50" height="50" relative="1" as="geometry">
            <mxPoint x="-828" y="-822" as="sourcePoint" />
            <mxPoint x="-778" y="-872" as="targetPoint" />
          </mxGeometry>
        </mxCell>
        <mxCell id="Xon4dPEt-r_UMkQlmW_U-1" value="aiQuestion(inputQuestion)" style="swimlane;fontStyle=0;childLayout=stackLayout;horizontal=1;startSize=30;horizontalStack=0;resizeParent=1;resizeParentMax=0;resizeLast=0;collapsible=1;marginBottom=0;whiteSpace=wrap;html=1;strokeWidth=1;" vertex="1" parent="1">
          <mxGeometry x="-595" y="-669" width="340" height="179" as="geometry" />
        </mxCell>
        <mxCell id="Xon4dPEt-r_UMkQlmW_U-2" value="prompt =generatePrompt(userInfo, inputQuestion)" style="text;strokeColor=none;fillColor=none;align=left;verticalAlign=middle;spacingLeft=4;spacingRight=4;overflow=hidden;points=[[0,0.5],[1,0.5]];portConstraint=eastwest;rotatable=0;whiteSpace=wrap;html=1;strokeWidth=1;" vertex="1" parent="Xon4dPEt-r_UMkQlmW_U-1">
          <mxGeometry y="30" width="340" height="30" as="geometry" />
        </mxCell>
        <mxCell id="Xon4dPEt-r_UMkQlmW_U-3" value="gemini" style="text;strokeColor=none;fillColor=none;align=left;verticalAlign=middle;spacingLeft=4;spacingRight=4;overflow=hidden;points=[[0,0.5],[1,0.5]];portConstraint=eastwest;rotatable=0;whiteSpace=wrap;html=1;strokeWidth=1;" vertex="1" parent="Xon4dPEt-r_UMkQlmW_U-1">
          <mxGeometry y="60" width="340" height="30" as="geometry" />
        </mxCell>
        <mxCell id="Xon4dPEt-r_UMkQlmW_U-69" value="clearText(textInput)" style="text;strokeColor=none;fillColor=none;align=left;verticalAlign=middle;spacingLeft=4;spacingRight=4;overflow=hidden;points=[[0,0.5],[1,0.5]];portConstraint=eastwest;rotatable=0;whiteSpace=wrap;html=1;" vertex="1" parent="Xon4dPEt-r_UMkQlmW_U-1">
          <mxGeometry y="90" width="340" height="30" as="geometry" />
        </mxCell>
        <mxCell id="Xon4dPEt-r_UMkQlmW_U-4" value="res = await fetch(url, method:&quot; &quot; ; ,headers: &quot; &quot;;, body: &quot; &quot;;)" style="text;strokeColor=none;fillColor=none;align=left;verticalAlign=middle;spacingLeft=4;spacingRight=4;overflow=hidden;points=[[0,0.5],[1,0.5]];portConstraint=eastwest;rotatable=0;whiteSpace=wrap;html=1;strokeWidth=1;" vertex="1" parent="Xon4dPEt-r_UMkQlmW_U-1">
          <mxGeometry y="120" width="340" height="30" as="geometry" />
        </mxCell>
        <mxCell id="Xon4dPEt-r_UMkQlmW_U-35" value="return res; //JSON객체" style="text;strokeColor=none;fillColor=none;align=left;verticalAlign=middle;spacingLeft=4;spacingRight=4;overflow=hidden;points=[[0,0.5],[1,0.5]];portConstraint=eastwest;rotatable=0;whiteSpace=wrap;html=1;strokeWidth=1;" vertex="1" parent="Xon4dPEt-r_UMkQlmW_U-1">
          <mxGeometry y="150" width="340" height="29" as="geometry" />
        </mxCell>
        <mxCell id="Xon4dPEt-r_UMkQlmW_U-5" value="" style="endArrow=classic;html=1;rounded=0;entryX=0;entryY=0.25;entryDx=0;entryDy=0;strokeWidth=1;exitX=1;exitY=0.5;exitDx=0;exitDy=0;" edge="1" parent="1" source="O5eXx5Uky2tUyCatkSHt-3" target="Xon4dPEt-r_UMkQlmW_U-1">
          <mxGeometry width="50" height="50" relative="1" as="geometry">
            <mxPoint x="-818" y="-762" as="sourcePoint" />
            <mxPoint x="-618" y="-782" as="targetPoint" />
          </mxGeometry>
        </mxCell>
        <mxCell id="Xon4dPEt-r_UMkQlmW_U-39" value="talkRendering( who, message)" style="swimlane;fontStyle=0;childLayout=stackLayout;horizontal=1;startSize=30;horizontalStack=0;resizeParent=1;resizeParentMax=0;resizeLast=0;collapsible=1;marginBottom=0;whiteSpace=wrap;html=1;" vertex="1" parent="1">
          <mxGeometry x="-1458" y="-772" width="230" height="80" as="geometry" />
        </mxCell>
        <mxCell id="Xon4dPEt-r_UMkQlmW_U-40" value="who에 따라 message를 .textContent에 삽입" style="text;strokeColor=none;fillColor=none;align=left;verticalAlign=middle;spacingLeft=4;spacingRight=4;overflow=hidden;points=[[0,0.5],[1,0.5]];portConstraint=eastwest;rotatable=0;whiteSpace=wrap;html=1;" vertex="1" parent="Xon4dPEt-r_UMkQlmW_U-39">
          <mxGeometry y="30" width="230" height="50" as="geometry" />
        </mxCell>
        <mxCell id="Xon4dPEt-r_UMkQlmW_U-43" value="" style="endArrow=classic;html=1;rounded=0;exitX=0;exitY=0.5;exitDx=0;exitDy=0;entryX=0.984;entryY=0.36;entryDx=0;entryDy=0;entryPerimeter=0;" edge="1" parent="1" source="Xon4dPEt-r_UMkQlmW_U-38" target="Xon4dPEt-r_UMkQlmW_U-39">
          <mxGeometry width="50" height="50" relative="1" as="geometry">
            <mxPoint x="-818" y="-692" as="sourcePoint" />
            <mxPoint x="-1068" y="-761" as="targetPoint" />
          </mxGeometry>
        </mxCell>
        <mxCell id="Xon4dPEt-r_UMkQlmW_U-45" value="" style="endArrow=classic;html=1;rounded=0;exitX=0;exitY=0.5;exitDx=0;exitDy=0;entryX=1;entryY=0.375;entryDx=0;entryDy=0;entryPerimeter=0;" edge="1" parent="1" source="O5eXx5Uky2tUyCatkSHt-5" target="Xon4dPEt-r_UMkQlmW_U-39">
          <mxGeometry width="50" height="50" relative="1" as="geometry">
            <mxPoint x="-818" y="-692" as="sourcePoint" />
            <mxPoint x="-768" y="-742" as="targetPoint" />
          </mxGeometry>
        </mxCell>
        <mxCell id="Xon4dPEt-r_UMkQlmW_U-46" value="stringSplit(jsonString)" style="swimlane;fontStyle=0;childLayout=stackLayout;horizontal=1;startSize=30;horizontalStack=0;resizeParent=1;resizeParentMax=0;resizeLast=0;collapsible=1;marginBottom=0;whiteSpace=wrap;html=1;" vertex="1" parent="1">
          <mxGeometry x="-955" y="-343" width="247" height="201" as="geometry" />
        </mxCell>
        <mxCell id="Xon4dPEt-r_UMkQlmW_U-71" value="jsongString = backtickRemove(jsonString)" style="text;strokeColor=none;fillColor=none;align=left;verticalAlign=middle;spacingLeft=4;spacingRight=4;overflow=hidden;points=[[0,0.5],[1,0.5]];portConstraint=eastwest;rotatable=0;whiteSpace=wrap;html=1;" vertex="1" parent="Xon4dPEt-r_UMkQlmW_U-46">
          <mxGeometry y="30" width="247" height="30" as="geometry" />
        </mxCell>
        <mxCell id="Xon4dPEt-r_UMkQlmW_U-92" value="const obj = JSON.parse(jsonString)" style="text;strokeColor=none;fillColor=none;align=left;verticalAlign=middle;spacingLeft=4;spacingRight=4;overflow=hidden;points=[[0,0.5],[1,0.5]];portConstraint=eastwest;rotatable=0;whiteSpace=wrap;html=1;" vertex="1" parent="Xon4dPEt-r_UMkQlmW_U-46">
          <mxGeometry y="60" width="247" height="30" as="geometry" />
        </mxCell>
        <mxCell id="Xon4dPEt-r_UMkQlmW_U-48" value="notDollar(obj)" style="text;strokeColor=none;fillColor=none;align=left;verticalAlign=middle;spacingLeft=4;spacingRight=4;overflow=hidden;points=[[0,0.5],[1,0.5]];portConstraint=eastwest;rotatable=0;whiteSpace=wrap;html=1;" vertex="1" parent="Xon4dPEt-r_UMkQlmW_U-46">
          <mxGeometry y="90" width="247" height="30" as="geometry" />
        </mxCell>
        <mxCell id="Xon4dPEt-r_UMkQlmW_U-72" value="const resultText = keyValue(obj)" style="text;strokeColor=none;fillColor=none;align=left;verticalAlign=middle;spacingLeft=4;spacingRight=4;overflow=hidden;points=[[0,0.5],[1,0.5]];portConstraint=eastwest;rotatable=0;whiteSpace=wrap;html=1;" vertex="1" parent="Xon4dPEt-r_UMkQlmW_U-46">
          <mxGeometry y="120" width="247" height="30" as="geometry" />
        </mxCell>
        <mxCell id="Xon4dPEt-r_UMkQlmW_U-49" value="return resultText" style="text;strokeColor=none;fillColor=none;align=left;verticalAlign=middle;spacingLeft=4;spacingRight=4;overflow=hidden;points=[[0,0.5],[1,0.5]];portConstraint=eastwest;rotatable=0;whiteSpace=wrap;html=1;" vertex="1" parent="Xon4dPEt-r_UMkQlmW_U-46">
          <mxGeometry y="150" width="247" height="51" as="geometry" />
        </mxCell>
        <mxCell id="Xon4dPEt-r_UMkQlmW_U-50" value="" style="endArrow=classic;html=1;rounded=0;exitX=0.489;exitY=0.986;exitDx=0;exitDy=0;exitPerimeter=0;entryX=0.5;entryY=0;entryDx=0;entryDy=0;" edge="1" parent="1" source="O5eXx5Uky2tUyCatkSHt-5" target="Xon4dPEt-r_UMkQlmW_U-46">
          <mxGeometry width="50" height="50" relative="1" as="geometry">
            <mxPoint x="-688" y="-492" as="sourcePoint" />
            <mxPoint x="-638" y="-542" as="targetPoint" />
          </mxGeometry>
        </mxCell>
        <mxCell id="Xon4dPEt-r_UMkQlmW_U-52" value="&lt;font style=&quot;font-size: 40px;&quot;&gt;aiRendering.js&lt;/font&gt;" style="text;html=1;align=center;verticalAlign=middle;whiteSpace=wrap;rounded=0;" vertex="1" parent="1">
          <mxGeometry x="-1415" y="-872" width="167" height="90" as="geometry" />
        </mxCell>
        <mxCell id="Xon4dPEt-r_UMkQlmW_U-55" value="generatePrompt(userINfo, inputQuestion)" style="swimlane;fontStyle=0;childLayout=stackLayout;horizontal=1;startSize=30;horizontalStack=0;resizeParent=1;resizeParentMax=0;resizeLast=0;collapsible=1;marginBottom=0;whiteSpace=wrap;html=1;" vertex="1" parent="1">
          <mxGeometry x="-595" y="-816" width="332" height="120" as="geometry" />
        </mxCell>
        <mxCell id="Xon4dPEt-r_UMkQlmW_U-56" value="userInfo 사용자 정보" style="text;strokeColor=none;fillColor=none;align=left;verticalAlign=middle;spacingLeft=4;spacingRight=4;overflow=hidden;points=[[0,0.5],[1,0.5]];portConstraint=eastwest;rotatable=0;whiteSpace=wrap;html=1;" vertex="1" parent="Xon4dPEt-r_UMkQlmW_U-55">
          <mxGeometry y="30" width="332" height="30" as="geometry" />
        </mxCell>
        <mxCell id="Xon4dPEt-r_UMkQlmW_U-57" value="inputQuestion: 사요자 질문" style="text;strokeColor=none;fillColor=none;align=left;verticalAlign=middle;spacingLeft=4;spacingRight=4;overflow=hidden;points=[[0,0.5],[1,0.5]];portConstraint=eastwest;rotatable=0;whiteSpace=wrap;html=1;" vertex="1" parent="Xon4dPEt-r_UMkQlmW_U-55">
          <mxGeometry y="60" width="332" height="30" as="geometry" />
        </mxCell>
        <mxCell id="Xon4dPEt-r_UMkQlmW_U-58" value="위에 2가지를 포함하여 미리 작성한 프롬프트 리턴" style="text;strokeColor=none;fillColor=none;align=left;verticalAlign=middle;spacingLeft=4;spacingRight=4;overflow=hidden;points=[[0,0.5],[1,0.5]];portConstraint=eastwest;rotatable=0;whiteSpace=wrap;html=1;" vertex="1" parent="Xon4dPEt-r_UMkQlmW_U-55">
          <mxGeometry y="90" width="332" height="30" as="geometry" />
        </mxCell>
        <mxCell id="Xon4dPEt-r_UMkQlmW_U-64" value="clearText(adress)" style="swimlane;fontStyle=0;childLayout=stackLayout;horizontal=1;startSize=30;horizontalStack=0;resizeParent=1;resizeParentMax=0;resizeLast=0;collapsible=1;marginBottom=0;whiteSpace=wrap;html=1;" vertex="1" parent="1">
          <mxGeometry x="-1456" y="-650" width="199" height="99" as="geometry" />
        </mxCell>
        <mxCell id="Xon4dPEt-r_UMkQlmW_U-65" value="주소에따라서&amp;nbsp;&lt;div&gt;.value를&amp;nbsp;&lt;span style=&quot;background-color: transparent; color: light-dark(rgb(0, 0, 0), rgb(255, 255, 255));&quot;&gt;&#39; &#39;로 만드는 함수&lt;/span&gt;&lt;/div&gt;" style="text;strokeColor=none;fillColor=none;align=left;verticalAlign=middle;spacingLeft=4;spacingRight=4;overflow=hidden;points=[[0,0.5],[1,0.5]];portConstraint=eastwest;rotatable=0;whiteSpace=wrap;html=1;" vertex="1" parent="Xon4dPEt-r_UMkQlmW_U-64">
          <mxGeometry y="30" width="199" height="69" as="geometry" />
        </mxCell>
        <mxCell id="Xon4dPEt-r_UMkQlmW_U-68" value="" style="curved=1;endArrow=classic;html=1;rounded=0;exitX=0.003;exitY=0.967;exitDx=0;exitDy=0;exitPerimeter=0;entryX=1;entryY=0.5;entryDx=0;entryDy=0;strokeColor=#FF5913;" edge="1" parent="1" source="Xon4dPEt-r_UMkQlmW_U-3" target="Xon4dPEt-r_UMkQlmW_U-65">
          <mxGeometry width="50" height="50" relative="1" as="geometry">
            <mxPoint x="-902" y="-615" as="sourcePoint" />
            <mxPoint x="-613" y="-668" as="targetPoint" />
            <Array as="points">
              <mxPoint x="-656" y="-647" />
              <mxPoint x="-634" y="-835" />
              <mxPoint x="-746" y="-881" />
              <mxPoint x="-992" y="-870" />
              <mxPoint x="-1143" y="-809" />
              <mxPoint x="-1082" y="-559" />
            </Array>
          </mxGeometry>
        </mxCell>
        <mxCell id="Xon4dPEt-r_UMkQlmW_U-70" value="&lt;font style=&quot;font-size: 40px;&quot;&gt;aiCall.js&lt;/font&gt;" style="text;strokeColor=none;fillColor=none;align=left;verticalAlign=middle;spacingLeft=4;spacingRight=4;overflow=hidden;points=[[0,0.5],[1,0.5]];portConstraint=eastwest;rotatable=0;whiteSpace=wrap;html=1;" vertex="1" parent="1">
          <mxGeometry x="-522" y="-915" width="169" height="109" as="geometry" />
        </mxCell>
        <mxCell id="Xon4dPEt-r_UMkQlmW_U-73" value="" style="curved=1;endArrow=classic;html=1;rounded=0;exitX=1;exitY=0.5;exitDx=0;exitDy=0;entryX=1;entryY=0.5;entryDx=0;entryDy=0;strokeColor=#FF3C15;" edge="1" parent="1" source="Xon4dPEt-r_UMkQlmW_U-49" target="O5eXx5Uky2tUyCatkSHt-5">
          <mxGeometry width="50" height="50" relative="1" as="geometry">
            <mxPoint x="-603" y="-320" as="sourcePoint" />
            <mxPoint x="-553" y="-370" as="targetPoint" />
            <Array as="points">
              <mxPoint x="-669" y="-231" />
              <mxPoint x="-669" y="-328" />
              <mxPoint x="-685" y="-434" />
              <mxPoint x="-635" y="-535" />
            </Array>
          </mxGeometry>
        </mxCell>
        <mxCell id="Xon4dPEt-r_UMkQlmW_U-74" value="backtickRemove" style="swimlane;fontStyle=0;childLayout=stackLayout;horizontal=1;startSize=30;horizontalStack=0;resizeParent=1;resizeParentMax=0;resizeLast=0;collapsible=1;marginBottom=0;whiteSpace=wrap;html=1;" vertex="1" parent="1">
          <mxGeometry x="-1178" y="-388" width="140" height="60" as="geometry" />
        </mxCell>
        <mxCell id="Xon4dPEt-r_UMkQlmW_U-75" value="백틱 제거하는 함수" style="text;strokeColor=none;fillColor=none;align=left;verticalAlign=middle;spacingLeft=4;spacingRight=4;overflow=hidden;points=[[0,0.5],[1,0.5]];portConstraint=eastwest;rotatable=0;whiteSpace=wrap;html=1;" vertex="1" parent="Xon4dPEt-r_UMkQlmW_U-74">
          <mxGeometry y="30" width="140" height="30" as="geometry" />
        </mxCell>
        <mxCell id="Xon4dPEt-r_UMkQlmW_U-78" value="" style="endArrow=classic;startArrow=classic;html=1;rounded=0;exitX=1;exitY=0.5;exitDx=0;exitDy=0;entryX=0;entryY=0.5;entryDx=0;entryDy=0;" edge="1" parent="1" source="Xon4dPEt-r_UMkQlmW_U-75" target="Xon4dPEt-r_UMkQlmW_U-71">
          <mxGeometry width="50" height="50" relative="1" as="geometry">
            <mxPoint x="-873" y="-171" as="sourcePoint" />
            <mxPoint x="-823" y="-221" as="targetPoint" />
          </mxGeometry>
        </mxCell>
        <mxCell id="Xon4dPEt-r_UMkQlmW_U-79" value="notDollar(obj)" style="swimlane;fontStyle=0;childLayout=stackLayout;horizontal=1;startSize=30;horizontalStack=0;resizeParent=1;resizeParentMax=0;resizeLast=0;collapsible=1;marginBottom=0;whiteSpace=wrap;html=1;" vertex="1" parent="1">
          <mxGeometry x="-1219" y="-315" width="183" height="150" as="geometry" />
        </mxCell>
        <mxCell id="Xon4dPEt-r_UMkQlmW_U-80" value="removeDollarSigns(text)" style="text;strokeColor=none;fillColor=none;align=left;verticalAlign=middle;spacingLeft=4;spacingRight=4;overflow=hidden;points=[[0,0.5],[1,0.5]];portConstraint=eastwest;rotatable=0;whiteSpace=wrap;html=1;" vertex="1" parent="Xon4dPEt-r_UMkQlmW_U-79">
          <mxGeometry y="30" width="183" height="30" as="geometry" />
        </mxCell>
        <mxCell id="Xon4dPEt-r_UMkQlmW_U-81" value="processObject(data)" style="text;strokeColor=none;fillColor=none;align=left;verticalAlign=middle;spacingLeft=4;spacingRight=4;overflow=hidden;points=[[0,0.5],[1,0.5]];portConstraint=eastwest;rotatable=0;whiteSpace=wrap;html=1;" vertex="1" parent="Xon4dPEt-r_UMkQlmW_U-79">
          <mxGeometry y="60" width="183" height="30" as="geometry" />
        </mxCell>
        <mxCell id="Xon4dPEt-r_UMkQlmW_U-82" value="return processObject(data)" style="text;strokeColor=none;fillColor=none;align=left;verticalAlign=middle;spacingLeft=4;spacingRight=4;overflow=hidden;points=[[0,0.5],[1,0.5]];portConstraint=eastwest;rotatable=0;whiteSpace=wrap;html=1;" vertex="1" parent="Xon4dPEt-r_UMkQlmW_U-79">
          <mxGeometry y="90" width="183" height="60" as="geometry" />
        </mxCell>
        <mxCell id="Xon4dPEt-r_UMkQlmW_U-83" value="" style="endArrow=classic;startArrow=classic;html=1;rounded=0;exitX=1;exitY=0.5;exitDx=0;exitDy=0;entryX=0;entryY=0.5;entryDx=0;entryDy=0;" edge="1" parent="1" source="Xon4dPEt-r_UMkQlmW_U-82" target="Xon4dPEt-r_UMkQlmW_U-48">
          <mxGeometry width="50" height="50" relative="1" as="geometry">
            <mxPoint x="-873" y="-171" as="sourcePoint" />
            <mxPoint x="-823" y="-221" as="targetPoint" />
          </mxGeometry>
        </mxCell>
        <mxCell id="Xon4dPEt-r_UMkQlmW_U-84" value="removeDollarsSigns" style="swimlane;fontStyle=0;childLayout=stackLayout;horizontal=1;startSize=30;horizontalStack=0;resizeParent=1;resizeParentMax=0;resizeLast=0;collapsible=1;marginBottom=0;whiteSpace=wrap;html=1;" vertex="1" parent="1">
          <mxGeometry x="-1460" y="-390" width="178" height="93" as="geometry" />
        </mxCell>
        <mxCell id="Xon4dPEt-r_UMkQlmW_U-85" value="\\$패턴도 고려하는 조건 함수" style="text;strokeColor=none;fillColor=none;align=left;verticalAlign=middle;spacingLeft=4;spacingRight=4;overflow=hidden;points=[[0,0.5],[1,0.5]];portConstraint=eastwest;rotatable=0;whiteSpace=wrap;html=1;" vertex="1" parent="Xon4dPEt-r_UMkQlmW_U-84">
          <mxGeometry y="30" width="178" height="63" as="geometry" />
        </mxCell>
        <mxCell id="Xon4dPEt-r_UMkQlmW_U-88" value="processObject(data)" style="swimlane;fontStyle=0;childLayout=stackLayout;horizontal=1;startSize=30;horizontalStack=0;resizeParent=1;resizeParentMax=0;resizeLast=0;collapsible=1;marginBottom=0;whiteSpace=wrap;html=1;" vertex="1" parent="1">
          <mxGeometry x="-1465" y="-278" width="183" height="123" as="geometry" />
        </mxCell>
        <mxCell id="Xon4dPEt-r_UMkQlmW_U-96" value="반복문 안에서 각조건의&lt;span style=&quot;background-color: transparent; color: light-dark(rgb(0, 0, 0), rgb(255, 255, 255));&quot;&gt;$제거&lt;/span&gt;" style="text;strokeColor=none;fillColor=none;align=left;verticalAlign=middle;spacingLeft=4;spacingRight=4;overflow=hidden;points=[[0,0.5],[1,0.5]];portConstraint=eastwest;rotatable=0;whiteSpace=wrap;html=1;" vertex="1" parent="Xon4dPEt-r_UMkQlmW_U-88">
          <mxGeometry y="30" width="183" height="93" as="geometry" />
        </mxCell>
        <mxCell id="Xon4dPEt-r_UMkQlmW_U-95" value="" style="endArrow=classic;html=1;rounded=0;exitX=0;exitY=0.5;exitDx=0;exitDy=0;entryX=1.022;entryY=0.413;entryDx=0;entryDy=0;entryPerimeter=0;" edge="1" parent="1" source="Xon4dPEt-r_UMkQlmW_U-80" target="Xon4dPEt-r_UMkQlmW_U-85">
          <mxGeometry width="50" height="50" relative="1" as="geometry">
            <mxPoint x="-980" y="-287" as="sourcePoint" />
            <mxPoint x="-930" y="-337" as="targetPoint" />
          </mxGeometry>
        </mxCell>
        <mxCell id="Xon4dPEt-r_UMkQlmW_U-97" value="" style="endArrow=classic;html=1;rounded=0;exitX=0;exitY=0.5;exitDx=0;exitDy=0;entryX=1;entryY=0.5;entryDx=0;entryDy=0;" edge="1" parent="1" source="Xon4dPEt-r_UMkQlmW_U-81" target="Xon4dPEt-r_UMkQlmW_U-96">
          <mxGeometry width="50" height="50" relative="1" as="geometry">
            <mxPoint x="-980" y="-287" as="sourcePoint" />
            <mxPoint x="-930" y="-337" as="targetPoint" />
          </mxGeometry>
        </mxCell>
        <mxCell id="Xon4dPEt-r_UMkQlmW_U-98" value="keyValue(data" style="swimlane;fontStyle=0;childLayout=stackLayout;horizontal=1;startSize=30;horizontalStack=0;resizeParent=1;resizeParentMax=0;resizeLast=0;collapsible=1;marginBottom=0;whiteSpace=wrap;html=1;" vertex="1" parent="1">
          <mxGeometry x="-567" y="-330" width="228" height="186" as="geometry" />
        </mxCell>
        <mxCell id="Xon4dPEt-r_UMkQlmW_U-99" value="let result =&amp;nbsp; &#39; &#39;; //반환할 문자열" style="text;strokeColor=none;fillColor=none;align=left;verticalAlign=middle;spacingLeft=4;spacingRight=4;overflow=hidden;points=[[0,0.5],[1,0.5]];portConstraint=eastwest;rotatable=0;whiteSpace=wrap;html=1;" vertex="1" parent="Xon4dPEt-r_UMkQlmW_U-98">
          <mxGeometry y="30" width="228" height="40" as="geometry" />
        </mxCell>
        <mxCell id="Xon4dPEt-r_UMkQlmW_U-100" value="//forEach로 key와 value로 나눠줌" style="text;strokeColor=none;fillColor=none;align=left;verticalAlign=middle;spacingLeft=4;spacingRight=4;overflow=hidden;points=[[0,0.5],[1,0.5]];portConstraint=eastwest;rotatable=0;whiteSpace=wrap;html=1;" vertex="1" parent="Xon4dPEt-r_UMkQlmW_U-98">
          <mxGeometry y="70" width="228" height="30" as="geometry" />
        </mxCell>
        <mxCell id="Xon4dPEt-r_UMkQlmW_U-101" value="Object.entries(data).forEach(([key,value]) = &amp;gt;&lt;div&gt;const label={}&lt;div&gt;//value가 배열이면 다르게 처리할 조건 문&lt;/div&gt;&lt;/div&gt;" style="text;strokeColor=none;fillColor=none;align=left;verticalAlign=middle;spacingLeft=4;spacingRight=4;overflow=hidden;points=[[0,0.5],[1,0.5]];portConstraint=eastwest;rotatable=0;whiteSpace=wrap;html=1;" vertex="1" parent="Xon4dPEt-r_UMkQlmW_U-98">
          <mxGeometry y="100" width="228" height="86" as="geometry" />
        </mxCell>
        <mxCell id="Xon4dPEt-r_UMkQlmW_U-102" value="" style="endArrow=classic;startArrow=classic;html=1;rounded=0;exitX=1;exitY=0.5;exitDx=0;exitDy=0;entryX=-0.009;entryY=0.709;entryDx=0;entryDy=0;entryPerimeter=0;" edge="1" parent="1" source="Xon4dPEt-r_UMkQlmW_U-72" target="Xon4dPEt-r_UMkQlmW_U-101">
          <mxGeometry width="50" height="50" relative="1" as="geometry">
            <mxPoint x="-448" y="-265" as="sourcePoint" />
            <mxPoint x="-398" y="-315" as="targetPoint" />
          </mxGeometry>
        </mxCell>
        <mxCell id="Xon4dPEt-r_UMkQlmW_U-104" value="&lt;font style=&quot;font-size: 40px;&quot;&gt;cleanString.js&lt;/font&gt;" style="text;strokeColor=none;fillColor=none;align=left;verticalAlign=middle;spacingLeft=4;spacingRight=4;overflow=hidden;points=[[0,0.5],[1,0.5]];portConstraint=eastwest;rotatable=0;whiteSpace=wrap;html=1;" vertex="1" parent="1">
          <mxGeometry x="-588" y="-416" width="254" height="68" as="geometry" />
        </mxCell>
        <mxCell id="Xon4dPEt-r_UMkQlmW_U-107" value="" style="curved=1;endArrow=classic;html=1;rounded=0;exitX=1;exitY=0.5;exitDx=0;exitDy=0;entryX=1;entryY=0.5;entryDx=0;entryDy=0;" edge="1" parent="1" source="Xon4dPEt-r_UMkQlmW_U-58" target="Xon4dPEt-r_UMkQlmW_U-2">
          <mxGeometry width="50" height="50" relative="1" as="geometry">
            <mxPoint x="-319" y="-566" as="sourcePoint" />
            <mxPoint x="-269" y="-616" as="targetPoint" />
            <Array as="points">
              <mxPoint x="-218" y="-714" />
              <mxPoint x="-199" y="-720" />
              <mxPoint x="-183" y="-711" />
              <mxPoint x="-166" y="-596" />
            </Array>
          </mxGeometry>
        </mxCell>
        <mxCell id="Xon4dPEt-r_UMkQlmW_U-109" value="&lt;font style=&quot;font-size: 40px;&quot;&gt;app.js&lt;/font&gt;" style="text;strokeColor=none;fillColor=none;align=left;verticalAlign=middle;spacingLeft=4;spacingRight=4;overflow=hidden;points=[[0,0.5],[1,0.5]];portConstraint=eastwest;rotatable=0;whiteSpace=wrap;html=1;" vertex="1" parent="1">
          <mxGeometry x="-916.5" y="-1125" width="140" height="62" as="geometry" />
        </mxCell>
      </root>
    </mxGraphModel>
  </diagram>
</mxfile>
